<?xml version="1.0" encoding="UTF-8"?>
<svg id="Camada_1" xmlns="http://www.w3.org/2000/svg" xmlns:xlink="http://www.w3.org/1999/xlink" version="1.1" viewBox="0 0 416.9 417.11">
  <!-- Generator: Adobe Illustrator 30.5.1, SVG Export Plug-In . SVG Version: 2.1.4 Build 3)  -->
  <defs>
    <style>
      .st0 {
        fill: url(#Gradiente_sem_nome_5);
      }

      .st1 {
        fill: #4f2976;
        fill-rule: evenodd;
      }

      .st2 {
        clip-rule: evenodd;
        fill: none;
      }

      .st3 {
        clip-path: url(#clippath);
      }
    </style>
    <clipPath id="clippath">
      <path class="st2" d="M395.03,132.93v-18.48c0-47.06-37.58-85.77-84.21-87.6-1.11,12.27-3.53,23.48-7.34,33.54,31.09.26,56.6,25.13,57.89,55.98,12.41,3.22,23.82,8.93,33.66,16.56M21.87,132.85v-18.4c0-48.22,39.45-87.67,87.67-87.67h104.84c-7.29,9.65-12.54,20.89-15.76,33.6h-84.69c-31.31,0-57.08,24.95-58.39,55.96-12.41,3.2-23.82,8.89-33.66,16.51ZM361.42,296.83c12.39-3.22,23.78-8.92,33.61-16.55v31.99c0,48.21-39.45,87.67-87.67,87.67h-26.54c8.36-9.67,14.77-21.08,18.61-33.6h3.55c32.14,0,58.45-26.3,58.45-58.45v-11.06ZM139.77,399.94h-30.24c-48.22,0-87.67-39.45-87.67-87.67v-31.91c9.83,7.6,21.22,13.29,33.61,16.49v11.03c0,32.14,26.3,58.45,58.45,58.45h7.24c3.84,12.53,10.25,23.94,18.61,33.6Z"/>
    </clipPath>
    <linearGradient id="Gradiente_sem_nome_5" data-name="Gradiente sem nome 5" x1="208.45" y1="399.94" x2="208.45" y2="26.78" gradientUnits="userSpaceOnUse">
      <stop offset="0" stop-color="#252223"/>
      <stop offset=".42" stop-color="#282626"/>
      <stop offset=".86" stop-color="#343232"/>
      <stop offset="1" stop-color="#393837"/>
    </linearGradient>
  </defs>
  <g class="st3">
    <rect class="st0" x="21.87" y="26.78" width="373.16" height="373.16"/>
  </g>
  <path class="st1" d="M127.59,228.06c-14.17,7.67-23.8,22.67-23.8,39.91,0,25.04,20.3,45.35,45.35,45.35,18.87,0,35.06-11.53,41.88-27.93-30.62-5.17-55.3-27.82-63.43-57.33M71.21,251.42c5.78-27.35,25.6-49.53,51.57-58.63-5.92-18.15-22.99-31.28-43.12-31.28-25.04,0-45.35,20.3-45.35,45.35,0,22.16,15.89,40.61,36.9,44.56ZM247.4,192.47c-26.35,8.88-46.54,31.17-52.44,58.75-20.52-4.34-35.92-22.55-35.92-44.37,0-25.04,20.3-45.35,45.35-45.35,20.02,0,37,12.97,43.02,30.96ZM350.51,250.23c-6.46-28.39-28.07-51.01-55.89-58.9,6.34-17.4,23.03-29.82,42.62-29.82,25.04,0,45.35,20.3,45.35,45.35,0,20.43-13.51,37.7-32.08,43.37ZM224.31,294.36c-9.12,25.98-31.33,45.81-58.72,51.56,3.96,21,22.41,36.88,44.56,36.88,25.05,0,45.35-20.3,45.35-45.35,0-20.1-13.07-37.14-31.18-43.09ZM285.48,311.54c-8.84-25.7-30.46-45.45-57.26-51.67,3.82-21.18,22.35-37.24,44.62-37.24,25.04,0,45.35,20.3,45.35,45.35,0,20.66-13.81,38.1-32.71,43.57ZM350.59,285.39c37.64-6.35,66.31-39.09,66.31-78.54,0-43.99-35.66-79.65-79.65-79.65-27.74,0-52.17,14.18-66.43,35.69-14.26-21.51-38.69-35.69-66.43-35.69-25.26,0-47.78,11.76-62.37,30.1-14.59-18.34-37.11-30.1-62.37-30.1C35.66,127.21,0,162.86,0,206.86c0,41.26,31.37,75.19,71.55,79.24,6.84,29.4,29.96,52.55,59.34,59.43,4.05,40.2,37.98,71.58,79.25,71.58s74.99-31.18,79.21-71.19c30.44-6.41,54.48-30.21,61.24-60.52ZM208.39,108.19c71.04-2.32,97.1-41.91,90.29-108.19-70.19,2.75-99.71,42.8-90.29,108.19Z"/>
</svg>