<?xml version="1.0" encoding="UTF-8"?>
<svg id="Camada_1" xmlns="http://www.w3.org/2000/svg" xmlns:xlink="http://www.w3.org/1999/xlink" version="1.1" viewBox="0 0 437.02 118.77">
  <!-- Generator: Adobe Illustrator 30.5.1, SVG Export Plug-In . SVG Version: 2.1.4 Build 3)  -->
  <defs>
    <style>
      .st0 {
        fill: url(#Gradiente_sem_nome_5);
      }

      .st1 {
        fill-rule: evenodd;
      }

      .st1, .st2 {
        fill: #4f2976;
      }

      .st3 {
        clip-rule: evenodd;
        fill: none;
      }

      .st4 {
        fill: #787777;
      }

      .st5 {
        clip-path: url(#clippath);
      }
    </style>
    <clipPath id="clippath">
      <path class="st3" d="M112.48,37.85v-5.26c0-13.4-10.7-24.42-23.98-24.94-.32,3.49-1.01,6.68-2.09,9.55,8.85.08,16.12,7.16,16.48,15.94,3.53.92,6.78,2.54,9.58,4.72M6.23,37.83v-5.24c0-13.73,11.23-24.96,24.96-24.96h29.85c-2.07,2.75-3.57,5.95-4.49,9.57h-24.11c-8.92,0-16.25,7.11-16.63,15.93-3.53.91-6.78,2.53-9.58,4.7ZM102.91,84.52c3.53-.92,6.77-2.54,9.57-4.71v9.11c0,13.73-11.23,24.96-24.96,24.96h-7.56c2.38-2.75,4.21-6,5.3-9.57h1.01c9.15,0,16.64-7.49,16.64-16.64v-3.15ZM39.8,113.88h-8.61c-13.73,0-24.96-11.23-24.96-24.96v-9.09c2.8,2.17,6.04,3.78,9.57,4.7v3.14c0,9.15,7.49,16.64,16.64,16.64h2.06c1.09,3.57,2.92,6.82,5.3,9.57Z"/>
    </clipPath>
    <linearGradient id="Gradiente_sem_nome_5" data-name="Gradiente sem nome 5" x1="59.35" y1="113.88" x2="59.35" y2="7.63" gradientUnits="userSpaceOnUse">
      <stop offset="0" stop-color="#252223"/>
      <stop offset=".42" stop-color="#282626"/>
      <stop offset=".86" stop-color="#343232"/>
      <stop offset="1" stop-color="#393837"/>
    </linearGradient>
  </defs>
  <g>
    <path class="st4" d="M145.38,44.67c-3.29-1.82-5.88-4.38-7.75-7.67-1.87-3.29-2.81-7-2.81-11.13s.94-7.82,2.81-11.09c1.87-3.27,4.46-5.81,7.75-7.63,3.29-1.82,7.03-2.73,11.21-2.73,3.64,0,6.89.71,9.76,2.13,2.86,1.42,5.13,3.49,6.79,6.23l-4.26,2.89c-1.39-2.09-3.16-3.66-5.3-4.7-2.14-1.04-4.47-1.57-6.99-1.57-3.05,0-5.8.68-8.23,2.05-2.44,1.37-4.34,3.31-5.7,5.82-1.37,2.52-2.05,5.38-2.05,8.6s.68,6.15,2.05,8.64c1.37,2.49,3.27,4.42,5.7,5.78,2.44,1.37,5.18,2.05,8.23,2.05,2.52,0,4.85-.51,6.99-1.53,2.14-1.02,3.91-2.57,5.3-4.66l4.26,2.89c-1.66,2.73-3.94,4.81-6.83,6.23-2.89,1.42-6.13,2.13-9.72,2.13-4.18,0-7.91-.91-11.21-2.73Z"/>
    <path class="st4" d="M189.84,44.63c-3.27-1.85-5.84-4.4-7.71-7.67-1.87-3.27-2.81-6.96-2.81-11.09s.94-7.82,2.81-11.09c1.87-3.27,4.44-5.81,7.71-7.63,3.27-1.82,6.93-2.73,11.01-2.73s7.74.91,11.01,2.73c3.27,1.82,5.82,4.37,7.67,7.63,1.85,3.27,2.77,6.96,2.77,11.09s-.92,7.82-2.77,11.09c-1.85,3.27-4.41,5.82-7.67,7.67-3.27,1.85-6.94,2.77-11.01,2.77s-7.74-.92-11.01-2.77ZM208.92,40.3c2.38-1.37,4.24-3.31,5.58-5.82,1.34-2.52,2.01-5.38,2.01-8.6s-.67-6.08-2.01-8.6c-1.34-2.52-3.2-4.46-5.58-5.82-2.38-1.37-5.07-2.05-8.07-2.05s-5.69.68-8.07,2.05c-2.38,1.37-4.26,3.31-5.62,5.82-1.37,2.52-2.05,5.38-2.05,8.6s.68,6.08,2.05,8.6c1.37,2.52,3.24,4.46,5.62,5.82,2.38,1.37,5.07,2.05,8.07,2.05s5.69-.68,8.07-2.05Z"/>
    <path class="st4" d="M299.13,9.01c3.02,3.05,4.54,7.55,4.54,13.5v24.5h-5.7v-23.94c0-4.39-1.06-7.74-3.17-10.04-2.12-2.3-5.1-3.45-8.96-3.45-4.39,0-7.85,1.35-10.36,4.06-2.52,2.7-3.78,6.44-3.78,11.21v22.17h-5.7v-23.94c0-4.39-1.06-7.74-3.17-10.04-2.12-2.3-5.13-3.45-9.04-3.45-4.34,0-7.78,1.35-10.32,4.06-2.54,2.7-3.82,6.44-3.82,11.21v22.17h-5.7V4.75h5.46v7.71c1.5-2.57,3.59-4.55,6.27-5.94,2.68-1.39,5.76-2.09,9.24-2.09s6.6.75,9.2,2.25c2.6,1.5,4.54,3.72,5.82,6.67,1.55-2.78,3.79-4.97,6.71-6.55,2.92-1.58,6.25-2.37,10-2.37,5.3,0,9.47,1.53,12.49,4.58Z"/>
    <path class="st4" d="M351.71,7.12c3.21,1.79,5.73,4.33,7.55,7.59,1.82,3.27,2.73,6.99,2.73,11.17s-.91,7.98-2.73,11.25c-1.82,3.27-4.33,5.8-7.51,7.59-3.19,1.79-6.79,2.69-10.8,2.69-3.43,0-6.52-.71-9.28-2.13-2.76-1.42-5.02-3.49-6.79-6.23v23.54h-5.7V4.75h5.46v8.35c1.71-2.78,3.98-4.93,6.79-6.43,2.81-1.5,5.98-2.25,9.52-2.25,3.96,0,7.55.9,10.76,2.69ZM348.57,40.3c2.41-1.37,4.3-3.31,5.66-5.82,1.37-2.52,2.05-5.38,2.05-8.6s-.68-6.06-2.05-8.56c-1.37-2.49-3.25-4.43-5.66-5.82-2.41-1.39-5.09-2.09-8.03-2.09s-5.69.7-8.07,2.09c-2.38,1.39-4.26,3.33-5.62,5.82-1.37,2.49-2.05,5.34-2.05,8.56s.68,6.08,2.05,8.6c1.37,2.52,3.24,4.46,5.62,5.82,2.38,1.37,5.07,2.05,8.07,2.05s5.62-.68,8.03-2.05Z"/>
    <path class="st4" d="M385.08,6.6c2.65-1.45,5.93-2.17,9.84-2.17v5.54l-1.37-.08c-4.45,0-7.93,1.37-10.44,4.1-2.52,2.73-3.78,6.56-3.78,11.49v21.53h-5.7V4.75h5.46v8.27c1.34-2.84,3.33-4.98,5.98-6.43Z"/>
    <path class="st4" d="M432.6,8.57c2.94,2.76,4.42,6.84,4.42,12.25v26.19h-5.46v-6.59c-1.29,2.2-3.17,3.91-5.66,5.14-2.49,1.23-5.45,1.85-8.88,1.85-4.71,0-8.46-1.12-11.25-3.37-2.79-2.25-4.18-5.22-4.18-8.92s1.3-6.48,3.9-8.68c2.6-2.2,6.73-3.29,12.41-3.29h13.42v-2.57c0-3.64-1.02-6.41-3.05-8.31-2.04-1.9-5.01-2.85-8.92-2.85-2.68,0-5.25.44-7.71,1.33-2.46.88-4.58,2.1-6.35,3.66l-2.57-4.26c2.14-1.82,4.71-3.23,7.71-4.22,3-.99,6.16-1.49,9.48-1.49,5.52,0,9.75,1.38,12.69,4.14ZM426.17,40.7c2.3-1.47,4.02-3.6,5.14-6.39v-6.91h-13.25c-7.23,0-10.84,2.52-10.84,7.55,0,2.46.94,4.41,2.81,5.82,1.87,1.42,4.5,2.13,7.87,2.13s5.97-.74,8.27-2.21Z"/>
    <path class="st2" d="M179.8,71.43l-18.24,43.22h-12.93l-18.15-43.22h12.93l11.97,29.4,12.37-29.4h12.05Z"/>
    <path class="st2" d="M185.58,63.4c-1.45-1.34-2.17-3-2.17-4.98s.72-3.64,2.17-4.98c1.45-1.34,3.32-2.01,5.62-2.01s4.18.64,5.62,1.93,2.17,2.89,2.17,4.82c0,2.09-.72,3.82-2.17,5.18-1.45,1.37-3.32,2.05-5.62,2.05s-4.18-.67-5.62-2.01ZM184.94,71.43h12.53v43.22h-12.53v-43.22Z"/>
    <path class="st2" d="M248.36,75.61c3.29,3.21,4.94,7.98,4.94,14.3v24.74h-12.53v-22.81c0-3.43-.75-5.98-2.25-7.67-1.5-1.69-3.67-2.53-6.51-2.53-3.16,0-5.68.98-7.55,2.93-1.87,1.96-2.81,4.86-2.81,8.72v21.37h-12.53v-43.22h11.97v5.06c1.66-1.82,3.72-3.23,6.19-4.22,2.46-.99,5.17-1.49,8.11-1.49,5.35,0,9.68,1.61,12.97,4.82Z"/>
    <path class="st2" d="M303.87,75.61c3.29,3.21,4.94,7.98,4.94,14.3v24.74h-12.53v-22.81c0-3.43-.75-5.98-2.25-7.67-1.5-1.69-3.67-2.53-6.51-2.53-3.16,0-5.68.98-7.55,2.93-1.87,1.96-2.81,4.86-2.81,8.72v21.37h-12.53v-59.61h12.53v20.89c1.66-1.66,3.67-2.93,6.02-3.82,2.36-.88,4.93-1.33,7.71-1.33,5.35,0,9.68,1.61,12.97,4.82Z"/>
    <path class="st2" d="M328.93,112.44c-3.61-1.9-6.44-4.54-8.47-7.91-2.04-3.37-3.05-7.2-3.05-11.49s1.02-8.11,3.05-11.49c2.03-3.37,4.86-6.01,8.47-7.91,3.61-1.9,7.7-2.85,12.25-2.85s8.62.95,12.21,2.85c3.59,1.9,6.4,4.54,8.43,7.91,2.03,3.37,3.05,7.2,3.05,11.49s-1.02,8.11-3.05,11.49c-2.04,3.37-4.85,6.01-8.43,7.91-3.59,1.9-7.66,2.85-12.21,2.85s-8.64-.95-12.25-2.85ZM349.1,101.76c2.06-2.17,3.09-5.07,3.09-8.72s-1.03-6.55-3.09-8.72c-2.06-2.17-4.7-3.25-7.91-3.25s-5.86,1.08-7.95,3.25c-2.09,2.17-3.13,5.07-3.13,8.72s1.04,6.55,3.13,8.72c2.09,2.17,4.74,3.25,7.95,3.25s5.85-1.08,7.91-3.25Z"/>
  </g>
  <g>
    <path class="st4" d="M371.5,98.53c-.3-.31-.45-.68-.45-1.12s.15-.81.45-1.11.66-.45,1.08-.45.79.15,1.09.45c.31.3.46.67.46,1.11s-.15.82-.46,1.12c-.31.31-.67.46-1.09.46s-.78-.15-1.08-.46Z"/>
    <path class="st4" d="M380.3,98.01c-1.18-.65-2.11-1.57-2.78-2.75-.67-1.18-1.01-2.51-1.01-3.99s.34-2.8,1.01-3.97c.67-1.17,1.6-2.08,2.78-2.73,1.18-.65,2.52-.98,4.01-.98,1.3,0,2.47.25,3.5.76,1.03.51,1.84,1.25,2.43,2.23l-1.53,1.04c-.5-.75-1.13-1.31-1.9-1.68-.77-.37-1.6-.56-2.5-.56-1.09,0-2.08.24-2.95.73-.87.49-1.55,1.18-2.04,2.09-.49.9-.73,1.93-.73,3.08s.24,2.2.73,3.09c.49.89,1.17,1.58,2.04,2.07.87.49,1.86.73,2.95.73.9,0,1.74-.18,2.5-.55.77-.36,1.4-.92,1.9-1.67l1.53,1.04c-.59.98-1.41,1.72-2.45,2.23-1.04.51-2.2.76-3.48.76-1.5,0-2.83-.33-4.01-.98Z"/>
    <path class="st4" d="M396.23,98c-1.17-.66-2.09-1.58-2.76-2.75-.67-1.17-1.01-2.49-1.01-3.97s.34-2.8,1.01-3.97c.67-1.17,1.59-2.08,2.76-2.73,1.17-.65,2.48-.98,3.94-.98s2.77.33,3.94.98c1.17.65,2.09,1.56,2.75,2.73.66,1.17.99,2.49.99,3.97s-.33,2.8-.99,3.97c-.66,1.17-1.58,2.09-2.75,2.75-1.17.66-2.49.99-3.94.99s-2.77-.33-3.94-.99ZM403.07,96.44c.85-.49,1.52-1.18,2-2.09.48-.9.72-1.93.72-3.08s-.24-2.18-.72-3.08c-.48-.9-1.15-1.6-2-2.09-.85-.49-1.82-.73-2.89-.73s-2.04.24-2.89.73c-.85.49-1.53,1.18-2.01,2.09-.49.9-.73,1.93-.73,3.08s.24,2.18.73,3.08c.49.9,1.16,1.6,2.01,2.09.85.49,1.82.73,2.89.73s2.04-.24,2.89-.73Z"/>
    <path class="st4" d="M435.39,85.23c1.08,1.09,1.63,2.71,1.63,4.84v8.78h-2.04v-8.58c0-1.57-.38-2.77-1.14-3.6-.76-.82-1.83-1.24-3.21-1.24-1.57,0-2.81.48-3.71,1.45-.9.97-1.35,2.31-1.35,4.01v7.94h-2.04v-8.58c0-1.57-.38-2.77-1.14-3.6-.76-.82-1.84-1.24-3.24-1.24-1.55,0-2.79.48-3.7,1.45-.91.97-1.37,2.31-1.37,4.01v7.94h-2.04v-15.14h1.96v2.76c.54-.92,1.29-1.63,2.24-2.13.96-.5,2.06-.75,3.31-.75s2.36.27,3.3.81c.93.54,1.63,1.33,2.09,2.39.56-1,1.36-1.78,2.4-2.35,1.05-.57,2.24-.85,3.58-.85,1.9,0,3.39.55,4.48,1.64Z"/>
  </g>
  <g>
    <g class="st5">
      <rect class="st0" x="6.23" y="7.63" width="106.25" height="106.25"/>
    </g>
    <path class="st1" d="M36.33,64.94c-4.04,2.18-6.78,6.45-6.78,11.36,0,7.13,5.78,12.91,12.91,12.91,5.37,0,9.98-3.28,11.92-7.95-8.72-1.47-15.75-7.92-18.06-16.32M20.28,71.59c1.65-7.79,7.29-14.1,14.68-16.69-1.69-5.17-6.55-8.91-12.28-8.91-7.13,0-12.91,5.78-12.91,12.91,0,6.31,4.53,11.56,10.51,12.69ZM70.45,54.8c-7.5,2.53-13.25,8.87-14.93,16.73-5.84-1.23-10.23-6.42-10.23-12.63,0-7.13,5.78-12.91,12.91-12.91,5.7,0,10.54,3.69,12.25,8.82ZM99.81,71.25c-1.84-8.08-7.99-14.52-15.91-16.77,1.8-4.95,6.56-8.49,12.14-8.49,7.13,0,12.91,5.78,12.91,12.91,0,5.82-3.85,10.74-9.13,12.35ZM63.87,83.82c-2.6,7.4-8.92,13.04-16.72,14.68,1.13,5.98,6.38,10.5,12.69,10.5,7.13,0,12.91-5.78,12.91-12.91,0-5.72-3.72-10.58-8.88-12.27ZM81.29,88.71c-2.52-7.32-8.67-12.94-16.3-14.71,1.09-6.03,6.36-10.6,12.71-10.6,7.13,0,12.91,5.78,12.91,12.91,0,5.88-3.93,10.85-9.31,12.4ZM99.83,81.26c10.72-1.81,18.88-11.13,18.88-22.36,0-12.53-10.15-22.68-22.68-22.68-7.9,0-14.85,4.04-18.92,10.16-4.06-6.12-11.02-10.16-18.92-10.16-7.19,0-13.6,3.35-17.76,8.57-4.15-5.22-10.57-8.57-17.76-8.57C10.15,36.22,0,46.37,0,58.9c0,11.75,8.93,21.41,20.37,22.56,1.95,8.37,8.53,14.96,16.9,16.92,1.15,11.45,10.81,20.38,22.56,20.38s21.35-8.88,22.55-20.27c8.67-1.83,15.51-8.6,17.44-17.23ZM59.34,30.81c20.23-.66,27.65-11.93,25.71-30.81-19.98.78-28.39,12.19-25.71,30.81Z"/>
  </g>
</svg>